<svg width="800" height="600" xmlns="http://www.w3.org/2000/svg"><g fill="#fff"><path d="M499.647 258.728c-.469-10.645-2.19-17.964-4.656-24.306-2.544-6.731-6.458-12.758-11.586-17.768a49.307 49.307 0 00-17.73-11.546c-6.379-2.466-13.66-4.188-24.305-4.657-10.725-.509-14.13-.627-41.331-.627s-30.606.118-41.292.587c-10.645.47-17.964 2.193-24.304 4.657-6.733 2.544-12.76 6.458-17.77 11.586a49.328 49.328 0 00-11.546 17.73c-2.466 6.38-4.187 13.66-4.657 24.305-.509 10.725-.627 14.13-.627 41.33s.118 30.607.587 41.292c.47 10.646 2.193 17.965 4.659 24.306a49.405 49.405 0 0011.584 17.769 49.307 49.307 0 0017.73 11.546c6.38 2.466 13.66 4.187 24.306 4.657 10.684.47 14.09.587 41.292.587s30.606-.116 41.291-.587c10.646-.47 17.964-2.191 24.305-4.657a51.246 51.246 0 0029.316-29.315c2.464-6.38 4.187-13.66 4.656-24.306.47-10.685.588-14.09.588-41.291s-.04-30.606-.51-41.292zm-18.042 81.8c-.43 9.785-2.074 15.07-3.444 18.592a33.235 33.235 0 01-19.022 19.022c-3.523 1.37-8.845 3.013-18.591 3.443-10.568.47-13.737.587-40.47.587s-29.94-.116-40.47-.587c-9.785-.43-15.068-2.073-18.59-3.443-4.344-1.606-8.298-4.15-11.507-7.476a31.149 31.149 0 01-7.476-11.507c-1.37-3.522-3.014-8.846-3.443-18.59-.471-10.568-.587-13.739-.587-40.471s.116-29.941.587-40.47c.43-9.784 2.073-15.068 3.443-18.59 1.605-4.345 4.15-8.297 7.516-11.508a31.101 31.101 0 0111.506-7.475c3.522-1.37 8.846-3.013 18.59-3.444 10.568-.47 13.74-.587 40.47-.587 26.772 0 29.941.118 40.47.587 9.785.431 15.069 2.075 18.591 3.444 4.344 1.604 8.298 4.148 11.507 7.475a31.142 31.142 0 017.476 11.508c1.37 3.522 3.013 8.844 3.444 18.59.47 10.568.587 13.738.587 40.47s-.117 29.863-.587 40.43zm0 0"/><path d="M400.039 248.552c-28.414 0-51.468 23.052-51.468 51.468s23.054 51.468 51.468 51.468c28.415 0 51.468-23.053 51.468-51.468s-23.053-51.468-51.468-51.468zm0 84.854c-18.434 0-33.386-14.951-33.386-33.386s14.952-33.386 33.386-33.386c18.435 0 33.386 14.95 33.386 33.386s-14.951 33.386-33.386 33.386zm65.519-86.889c0 6.636-5.38 12.016-12.016 12.016s-12.016-5.38-12.016-12.016 5.38-12.015 12.016-12.015 12.016 5.379 12.016 12.015zm0 0"/></g></svg>